<svg width="116" height="116" viewBox="0 0 116 116" fill="none" xmlns="http://www.w3.org/2000/svg">
<path d="M58 9.66675C48.4406 9.66675 39.0958 12.5014 31.1474 17.8124C23.199 23.1233 17.004 30.672 13.3458 39.5037C9.68757 48.3355 8.73041 58.0537 10.5954 67.4294C12.4603 76.8052 17.0636 85.4174 23.8232 92.1769C30.5827 98.9364 39.1949 103.54 48.5706 105.405C57.9464 107.27 67.6646 106.312 76.4964 102.654C85.3281 98.996 92.8767 92.801 98.1877 84.8526C103.499 76.9043 106.333 67.5595 106.333 58.0001C106.333 51.6529 105.083 45.3678 102.654 39.5037C100.225 33.6396 96.665 28.3114 92.1768 23.8233C87.6886 19.3351 82.3604 15.7749 76.4964 13.3459C70.6323 10.9169 64.3472 9.66675 58 9.66675ZM96.6666 58.0001C96.6773 66.5872 93.8004 74.9286 88.4983 81.6834L34.3166 27.5017C41.0714 22.1997 49.4128 19.3227 58 19.3334C68.255 19.3334 78.09 23.4072 85.3414 30.6586C92.5929 37.91 96.6666 47.745 96.6666 58.0001ZM19.3333 58.0001C19.3226 49.4129 22.1996 41.0716 27.5016 34.3167L81.6833 88.4984C74.9285 93.8005 66.5872 96.6774 58 96.6667C47.7449 96.6667 37.9099 92.593 30.6585 85.3415C23.4071 78.0901 19.3333 68.2551 19.3333 58.0001Z" fill="#CBCBCB"/>
</svg>
